<svg xmlns="http://www.w3.org/2000/svg" version="1.1" xmlns:xlink="http://www.w3.org/1999/xlink" xmlns:svgjs="http://svgjs.dev/svgjs" width="1440" height="560" preserveAspectRatio="none" viewBox="0 0 1440 560"><g mask="url(&quot;#SvgjsMask1002&quot;)" fill="none"><rect width="1440" height="560" x="0" y="0" fill="url(&quot;#SvgjsLinearGradient1003&quot;)"></rect><path d="M1440 0L1363.78 0L1440 36.28z" fill="rgba(255, 255, 255, .1)"></path><path d="M1363.78 0L1440 36.28L1440 152.29000000000002L740.52 0z" fill="rgba(255, 255, 255, .075)"></path><path d="M740.52 0L1440 152.29000000000002L1440 339.11L658.89 0z" fill="rgba(255, 255, 255, .05)"></path><path d="M658.89 0L1440 339.11L1440 445.97L437.64 0z" fill="rgba(255, 255, 255, .025)"></path><path d="M0 560L524.11 560L0 360.09000000000003z" fill="rgba(0, 0, 0, .1)"></path><path d="M0 360.09000000000003L524.11 560L710.14 560L0 333.03000000000003z" fill="rgba(0, 0, 0, .075)"></path><path d="M0 333.03L710.14 560L870.87 560L0 242.60999999999996z" fill="rgba(0, 0, 0, .05)"></path><path d="M0 242.61L870.87 560L929.45 560L0 155.33z" fill="rgba(0, 0, 0, .025)"></path></g><defs><mask id="SvgjsMask1002"><rect width="1440" height="560" fill="#ffffff"></rect></mask><linearGradient x1="15.28%" y1="-39.29%" x2="84.72%" y2="139.29%" gradientUnits="userSpaceOnUse" id="SvgjsLinearGradient1003"><stop stop-color="#0e2a47" offset="0"></stop><stop stop-color="#00459e" offset="1"></stop></linearGradient></defs></svg>